<svg width="256" height="256" viewBox="0 0 256 256" fill="none" xmlns="http://www.w3.org/2000/svg">
  <defs>
    <linearGradient id="crest-shell" x1="28" y1="18" x2="226" y2="238" gradientUnits="userSpaceOnUse">
      <stop stop-color="#79182A"/>
      <stop offset="1" stop-color="#B3283A"/>
    </linearGradient>
    <linearGradient id="crest-rim" x1="42" y1="36" x2="196" y2="214" gradientUnits="userSpaceOnUse">
      <stop stop-color="#F7D97A"/>
      <stop offset="0.5" stop-color="#D6A942"/>
      <stop offset="1" stop-color="#A3701E"/>
    </linearGradient>
    <linearGradient id="crest-field" x1="56" y1="44" x2="204" y2="212" gradientUnits="userSpaceOnUse">
      <stop stop-color="#173D7F"/>
      <stop offset="1" stop-color="#09142D"/>
    </linearGradient>
    <linearGradient id="mint-glow" x1="128" y1="58" x2="128" y2="110" gradientUnits="userSpaceOnUse">
      <stop stop-color="#7CF1DB"/>
      <stop offset="1" stop-color="#21C9A7"/>
    </linearGradient>
    <filter id="crest-shadow" x="10" y="10" width="236" height="242" filterUnits="userSpaceOnUse" color-interpolation-filters="sRGB">
      <feDropShadow dx="0" dy="14" stdDeviation="10" flood-color="#02070F" flood-opacity="0.42"/>
    </filter>
  </defs>

  <g filter="url(#crest-shadow)">
    <path d="M128 20L228 20V122C228 184.434 187.568 223.672 128 238C68.432 223.672 28 184.434 28 122V20H128Z" fill="url(#crest-shell)"/>
    <path d="M128 32L216 32V121.5C216 175.685 181.381 209.993 128 223.622C74.6192 209.993 40 175.685 40 121.5V32H128Z" fill="url(#crest-rim)"/>
    <path d="M128 42L208 42V120.803C208 169.511 176.731 201.067 128 214.677C79.2692 201.067 48 169.511 48 120.803V42H128Z" fill="url(#crest-field)"/>

    <ellipse cx="128" cy="86" rx="36" ry="26" fill="url(#mint-glow)" fill-opacity="0.24"/>

    <path d="M128 63L134.472 76.8614L149.669 78.8211L138.374 89.4575L141.211 104.379L128 97.1128L114.789 104.379L117.626 89.4575L106.331 78.8211L121.528 76.8614L128 63Z" fill="#F8E38C"/>
    <path d="M128 71L131.878 79.3085L141 80.4853L134.222 86.8654L135.924 95.8187L128 91.4602L120.076 95.8187L121.778 86.8654L115 80.4853L124.122 79.3085L128 71Z" fill="#FFF5D5"/>

    <g opacity="0.95">
      <path d="M85 144C99.447 136.002 113.754 132.003 128 132C142.246 132.003 156.553 136.002 171 144V184C156.935 173.861 142.601 168.793 128 168.797C113.399 168.793 99.0654 173.861 85 184V144Z" fill="#F6F1E5" stroke="#D7B867" stroke-width="4"/>
      <path d="M128 132V168.5" stroke="#C58F2F" stroke-width="4" stroke-linecap="round"/>
      <path d="M90 149C101.765 142.911 114.432 139.867 128 139.867C141.568 139.867 154.235 142.911 166 149" stroke="#C7D7F7" stroke-width="3" stroke-linecap="round"/>
      <path d="M90 160C101.765 153.911 114.432 150.867 128 150.867C141.568 150.867 154.235 153.911 166 160" stroke="#D7C6A1" stroke-width="2.8" stroke-linecap="round"/>
      <path d="M87 184C101.246 173.769 115.034 168.654 128.364 168.657C141.694 168.654 155.24 173.769 169 184" stroke="#E2C874" stroke-width="4" stroke-linecap="round"/>
    </g>

    <g fill="#22D0B0">
      <path d="M73.2876 159.238C64.8688 166.934 60.0228 176.021 58.7498 186.5C67.4938 181.631 76.1993 180.394 84.8664 182.788C81.3601 174.573 77.5004 166.723 73.2876 159.238Z" fill-opacity="0.92"/>
      <path d="M182.712 159.238C191.131 166.934 195.977 176.021 197.25 186.5C188.506 181.631 179.801 180.394 171.134 182.788C174.64 174.573 178.5 166.723 182.712 159.238Z" fill-opacity="0.92"/>
    </g>

    <path d="M82 104L100 93H156L174 104V113H82V104Z" fill="#103A78"/>
    <path d="M95 98H161" stroke="#E4C46D" stroke-width="4" stroke-linecap="round" stroke-opacity="0.92"/>
    <path d="M102 113H154" stroke="#F8E38C" stroke-width="3" stroke-linecap="round" stroke-opacity="0.7"/>
  </g>
</svg>
