<svg width="640" height="420" viewBox="0 0 640 420" fill="none" xmlns="http://www.w3.org/2000/svg">
  <rect width="640" height="420" rx="32" fill="#071A22"/>
  <rect x="28" y="28" width="584" height="364" rx="24" fill="#0C2530" stroke="#1E4A57"/>
  <rect x="60" y="60" width="220" height="28" rx="14" fill="#123744"/>
  <rect x="60" y="112" width="520" height="180" rx="24" fill="#081A22" stroke="#194350"/>
  <rect x="92" y="144" width="228" height="132" rx="20" fill="#0D2732"/>
  <rect x="344" y="144" width="204" height="56" rx="18" fill="#14C8BC"/>
  <rect x="344" y="220" width="204" height="56" rx="18" fill="#102E39" stroke="#2A5663"/>
  <rect x="92" y="314" width="456" height="18" rx="9" fill="#123744"/>
  <rect x="92" y="344" width="312" height="18" rx="9" fill="#0F313C"/>
  <rect x="118" y="170" width="176" height="80" rx="18" fill="#0B2028" stroke="#2A5663"/>
  <path d="M171 177H243L266 200V241C266 247.627 260.627 253 254 253H171C164.373 253 159 247.627 159 241V189C159 182.373 164.373 177 171 177Z" fill="#14C8BC" fill-opacity="0.15" stroke="#14C8BC" stroke-width="2"/>
  <path d="M242 177V201H266" stroke="#14C8BC" stroke-width="2"/>
  <text x="368" y="178" fill="#062028" font-size="16" font-family="Arial, sans-serif" font-weight="700">Download ZIP</text>
  <text x="368" y="253" fill="#C9D7DB" font-size="15" font-family="Arial, sans-serif">Keep the file on your computer.</text>
  <text x="92" y="91" fill="#DFF4F5" font-size="18" font-family="Arial, sans-serif" font-weight="700">Portal download card</text>
  <text x="92" y="334" fill="#88A6AF" font-size="14" font-family="Arial, sans-serif">Step 1: Download the extension package from the client portal.</text>
</svg>
