<svg width="640" height="420" viewBox="0 0 640 420" fill="none" xmlns="http://www.w3.org/2000/svg">
  <rect width="640" height="420" rx="32" fill="#071A22"/>
  <rect x="28" y="28" width="584" height="364" rx="24" fill="#0C2530" stroke="#1E4A57"/>
  <rect x="60" y="60" width="520" height="300" rx="24" fill="#081A22" stroke="#194350"/>
  <rect x="92" y="92" width="456" height="42" rx="16" fill="#102E39"/>
  <rect x="92" y="156" width="180" height="168" rx="20" fill="#0D2732"/>
  <rect x="296" y="156" width="220" height="64" rx="18" fill="#102E39" stroke="#2A5663"/>
  <rect x="296" y="240" width="220" height="64" rx="18" fill="#14C8BC"/>
  <circle cx="522" cy="110" r="13" fill="#14C8BC"/>
  <rect x="123" y="188" width="118" height="18" rx="9" fill="#1A4754"/>
  <rect x="123" y="218" width="96" height="18" rx="9" fill="#11353F"/>
  <rect x="123" y="248" width="78" height="18" rx="9" fill="#11353F"/>
  <text x="112" y="118" fill="#DFF4F5" font-size="17" font-family="Arial, sans-serif" font-weight="700">chrome://extensions</text>
  <text x="320" y="194" fill="#C9D7DB" font-size="15" font-family="Arial, sans-serif">Developer mode: ON</text>
  <text x="330" y="278" fill="#062028" font-size="16" font-family="Arial, sans-serif" font-weight="700">Load unpacked</text>
  <text x="92" y="346" fill="#88A6AF" font-size="14" font-family="Arial, sans-serif">Step 2: Extract the ZIP, open Chrome extensions, and choose the folder.</text>
</svg>
