<svg width="640" height="420" viewBox="0 0 640 420" fill="none" xmlns="http://www.w3.org/2000/svg">
  <rect width="640" height="420" rx="32" fill="#071A22"/>
  <rect x="28" y="28" width="584" height="364" rx="24" fill="#0C2530" stroke="#1E4A57"/>
  <rect x="86" y="60" width="220" height="300" rx="26" fill="#081A22" stroke="#194350"/>
  <rect x="334" y="88" width="218" height="82" rx="22" fill="#0D2732"/>
  <rect x="334" y="190" width="218" height="82" rx="22" fill="#0D2732"/>
  <rect x="334" y="292" width="218" height="48" rx="18" fill="#14C8BC"/>
  <rect x="114" y="108" width="164" height="18" rx="9" fill="#11353F"/>
  <rect x="114" y="142" width="164" height="50" rx="14" fill="#102E39"/>
  <rect x="114" y="214" width="164" height="18" rx="9" fill="#11353F"/>
  <rect x="114" y="248" width="164" height="50" rx="14" fill="#102E39"/>
  <circle cx="458" cy="129" r="12" fill="#14C8BC"/>
  <circle cx="458" cy="231" r="12" fill="#14C8BC"/>
  <text x="109" y="92" fill="#DFF4F5" font-size="17" font-family="Arial, sans-serif" font-weight="700">Extension onboarding</text>
  <text x="354" y="124" fill="#C9D7DB" font-size="15" font-family="Arial, sans-serif">App URL from portal</text>
  <text x="354" y="226" fill="#C9D7DB" font-size="15" font-family="Arial, sans-serif">Short-lived pairing code</text>
  <text x="402" y="322" fill="#062028" font-size="16" font-family="Arial, sans-serif" font-weight="700">Pair device</text>
  <text x="92" y="386" fill="#88A6AF" font-size="14" font-family="Arial, sans-serif">Step 3: Enter the app URL, pairing code, and device name.</text>
</svg>
